<mxfile host="www.draw.io" modified="2020-02-26T07:53:44.133Z" agent="Mozilla/5.0 (Windows NT 6.1; Win64; x64) AppleWebKit/537.36 (KHTML, like Gecko) Chrome/56.0.2924.87 Safari/537.36" etag="ZKMGVKymt4VF9tUAJy-7" version="12.7.6" type="github">
  <diagram id="jqoMgO3Tv0yLEbO1z9ub" name="Page-1">
    <mxGraphModel dx="868" dy="497" grid="1" gridSize="10" guides="1" tooltips="1" connect="1" arrows="1" fold="1" page="1" pageScale="1" pageWidth="827" pageHeight="1169" math="0" shadow="0">
      <root>
        <mxCell id="0" />
        <mxCell id="1" parent="0" />
        <mxCell id="dbmLQUkQ6qZhIsHGjJ-b-1" value="&lt;p style=&quot;line-height: 100%&quot;&gt;Team-working flow&lt;/p&gt;" style="html=1;shape=mxgraph.infographic.banner;dx=32;dy=17;notch=15;fillColor=#10739E;strokeColor=none;align=center;verticalAlign=middle;fontColor=#ffffff;fontSize=14;fontStyle=1;spacingBottom=15;labelPosition=center;verticalLabelPosition=middle;" vertex="1" parent="1">
          <mxGeometry x="284" y="10" width="260" height="70" as="geometry" />
        </mxCell>
        <mxCell id="dbmLQUkQ6qZhIsHGjJ-b-31" value="" style="shape=step;perimeter=stepPerimeter;whiteSpace=wrap;html=1;fixedSize=1;size=10;direction=south;fillColor=#10739E;strokeColor=none;rounded=0;" vertex="1" parent="1">
          <mxGeometry x="20" y="230" width="70" height="80" as="geometry" />
        </mxCell>
        <mxCell id="dbmLQUkQ6qZhIsHGjJ-b-32" value="" style="shape=step;perimeter=stepPerimeter;whiteSpace=wrap;html=1;fixedSize=1;size=10;direction=south;fillColor=#F2931E;strokeColor=none;rounded=0;" vertex="1" parent="1">
          <mxGeometry x="250" y="520" width="70" height="80" as="geometry" />
        </mxCell>
        <mxCell id="dbmLQUkQ6qZhIsHGjJ-b-33" value="" style="shape=step;perimeter=stepPerimeter;whiteSpace=wrap;html=1;fixedSize=1;size=10;direction=south;fillColor=#AE4132;strokeColor=none;rounded=0;" vertex="1" parent="1">
          <mxGeometry x="250" y="615" width="70" height="80" as="geometry" />
        </mxCell>
        <mxCell id="dbmLQUkQ6qZhIsHGjJ-b-34" value="" style="shape=step;perimeter=stepPerimeter;whiteSpace=wrap;html=1;fixedSize=1;size=10;direction=south;fillColor=#23445D;strokeColor=none;rounded=0;" vertex="1" parent="1">
          <mxGeometry x="250" y="695" width="70" height="80" as="geometry" />
        </mxCell>
        <mxCell id="dbmLQUkQ6qZhIsHGjJ-b-35" value="" style="shape=step;perimeter=stepPerimeter;whiteSpace=wrap;html=1;fixedSize=1;size=10;direction=south;fillColor=#12AAB5;strokeColor=none;rounded=0;" vertex="1" parent="1">
          <mxGeometry x="250" y="775" width="70" height="80" as="geometry" />
        </mxCell>
        <mxCell id="dbmLQUkQ6qZhIsHGjJ-b-36" value="&lt;font style=&quot;font-size: 10px&quot;&gt;&lt;font style=&quot;font-size: 12px&quot; color=&quot;#10739E&quot;&gt;&lt;b&gt;First meeting&lt;/b&gt;&lt;/font&gt;&lt;/font&gt;" style="rounded=1;strokeColor=none;fillColor=#EEEEEE;align=center;arcSize=12;verticalAlign=middle;whiteSpace=wrap;html=1;fontSize=12;" vertex="1" parent="1">
          <mxGeometry x="120" y="230" width="200" height="70" as="geometry" />
        </mxCell>
        <mxCell id="dbmLQUkQ6qZhIsHGjJ-b-37" value="&lt;font style=&quot;font-size: 10px&quot;&gt;&lt;font style=&quot;font-size: 12px&quot; color=&quot;#F2931E&quot;&gt;&lt;b&gt;L154696abel&lt;/b&gt;&lt;/font&gt;&lt;br&gt;&lt;br&gt;&lt;font size=&quot;1&quot;&gt;Lorem ipsum dolor sit amet, consectetur adipisicing elit&lt;/font&gt;&lt;/font&gt;" style="rounded=1;strokeColor=none;fillColor=#EEEEEE;align=center;arcSize=12;verticalAlign=top;whiteSpace=wrap;html=1;fontSize=12;" vertex="1" parent="1">
          <mxGeometry x="350" y="525" width="200" height="70" as="geometry" />
        </mxCell>
        <mxCell id="dbmLQUkQ6qZhIsHGjJ-b-38" value="&lt;font style=&quot;font-size: 10px&quot;&gt;&lt;font style=&quot;font-size: 12px&quot; color=&quot;#AE4132&quot;&gt;&lt;b&gt;Label&lt;/b&gt;&lt;/font&gt;&lt;br&gt;&lt;br&gt;&lt;font size=&quot;1&quot;&gt;Lorem ipsum dolor sit amet, consectetur adipisicing elit&lt;/font&gt;&lt;/font&gt;" style="rounded=1;strokeColor=none;fillColor=#EEEEEE;align=center;arcSize=12;verticalAlign=top;whiteSpace=wrap;html=1;fontSize=12;" vertex="1" parent="1">
          <mxGeometry x="350" y="615" width="200" height="70" as="geometry" />
        </mxCell>
        <mxCell id="dbmLQUkQ6qZhIsHGjJ-b-39" value="&lt;font style=&quot;font-size: 10px&quot;&gt;&lt;font style=&quot;font-size: 12px&quot; color=&quot;#23445D&quot;&gt;&lt;b&gt;Label&lt;/b&gt;&lt;/font&gt;&lt;br&gt;&lt;br&gt;&lt;font size=&quot;1&quot;&gt;Lorem ipsum dolor sit amet, consectetur adipisicing elit&lt;/font&gt;&lt;/font&gt;" style="rounded=1;strokeColor=none;fillColor=#EEEEEE;align=center;arcSize=12;verticalAlign=top;whiteSpace=wrap;html=1;fontSize=12;" vertex="1" parent="1">
          <mxGeometry x="350" y="695" width="200" height="70" as="geometry" />
        </mxCell>
        <mxCell id="dbmLQUkQ6qZhIsHGjJ-b-40" value="&lt;font style=&quot;font-size: 10px&quot;&gt;&lt;font style=&quot;font-size: 12px&quot; color=&quot;#12AAB5&quot;&gt;&lt;b&gt;Label&lt;/b&gt;&lt;/font&gt;&lt;br&gt;&lt;br&gt;&lt;font size=&quot;1&quot;&gt;Lorem ipsum dolor sit amet, consectetur adipisicing elit&lt;/font&gt;&lt;/font&gt;" style="rounded=1;strokeColor=none;fillColor=#EEEEEE;align=center;arcSize=12;verticalAlign=top;whiteSpace=wrap;html=1;fontSize=12;" vertex="1" parent="1">
          <mxGeometry x="350" y="775" width="200" height="70" as="geometry" />
        </mxCell>
        <mxCell id="dbmLQUkQ6qZhIsHGjJ-b-51" value="1" style="html=1;fillColor=#10739E;strokeColor=none;shadow=0;fontSize=17;fontColor=#FFFFFF;align=center;fontStyle=1;rounded=0;" vertex="1" parent="1">
          <mxGeometry x="480" y="190" width="40" height="40" as="geometry" />
        </mxCell>
        <mxCell id="dbmLQUkQ6qZhIsHGjJ-b-52" value="&lt;pre class=&quot;tw-data-text tw-text-large tw-ta&quot; id=&quot;tw-target-text&quot; dir=&quot;ltr&quot; style=&quot;line-height: 36px; border: none; padding: 2px 0.14em 2px 0px; position: relative; margin-top: -2px; margin-bottom: -2px; resize: none; font-family: inherit; overflow: hidden; width: 283px; white-space: pre-wrap; word-wrap: break-word; font-weight: normal;&quot;&gt;&lt;span lang=&quot;en&quot;&gt;&lt;font style=&quot;font-size: 18px&quot;&gt;Getting to know each other&lt;/font&gt;&lt;/span&gt;&lt;/pre&gt;" style="shape=mxgraph.infographic.ribbonSimple;notch1=0;notch2=10;notch=0;html=1;fillColor=#64BBE2;strokeColor=none;shadow=0;fontSize=17;fontColor=#FFFFFF;align=left;spacingLeft=10;fontStyle=1;" vertex="1" parent="1">
          <mxGeometry x="525" y="190" width="155" height="40" as="geometry" />
        </mxCell>
        <mxCell id="dbmLQUkQ6qZhIsHGjJ-b-53" value="2" style="html=1;fillColor=#F2931E;strokeColor=none;shadow=0;fontSize=17;fontColor=#FFFFFF;align=center;fontStyle=1;rounded=0;" vertex="1" parent="1">
          <mxGeometry x="480" y="235" width="40" height="40" as="geometry" />
        </mxCell>
        <mxCell id="dbmLQUkQ6qZhIsHGjJ-b-54" value="&lt;pre class=&quot;tw-data-text tw-text-large tw-ta&quot; id=&quot;tw-target-text&quot; dir=&quot;ltr&quot; style=&quot;line-height: 36px ; border: none ; padding: 2px 0.14em 2px 0px ; position: relative ; margin-top: -2px ; margin-bottom: -2px ; resize: none ; font-family: inherit ; overflow: hidden ; width: 283px ; white-space: pre-wrap ; word-wrap: break-word ; font-weight: normal&quot;&gt;&lt;span lang=&quot;en&quot;&gt;&lt;font style=&quot;font-size: 17px&quot;&gt;Brainstorm, &lt;/font&gt;&lt;/span&gt;&lt;/pre&gt;&lt;span style=&quot;font-family: &amp;#34;arial&amp;#34; , sans-serif ; font-weight: normal ; white-space: pre-wrap&quot;&gt;&lt;font style=&quot;font-size: 17px&quot;&gt;task understanding&lt;/font&gt;&lt;/span&gt;" style="shape=mxgraph.infographic.ribbonSimple;notch1=0;notch2=10;notch=0;html=1;fillColor=#F8C382;strokeColor=none;shadow=0;fontSize=17;fontColor=#FFFFFF;align=left;spacingLeft=10;fontStyle=1;verticalAlign=middle;" vertex="1" parent="1">
          <mxGeometry x="525" y="235" width="265" height="40" as="geometry" />
        </mxCell>
        <mxCell id="dbmLQUkQ6qZhIsHGjJ-b-55" value="3" style="html=1;fillColor=#AE4132;strokeColor=none;shadow=0;fontSize=17;fontColor=#FFFFFF;align=center;fontStyle=1;rounded=0;" vertex="1" parent="1">
          <mxGeometry x="480" y="280" width="40" height="40" as="geometry" />
        </mxCell>
        <mxCell id="dbmLQUkQ6qZhIsHGjJ-b-56" value="&lt;span style=&quot;color: rgb(34 , 34 , 34) ; font-family: &amp;#34;arial&amp;#34; , sans-serif ; font-weight: normal ; white-space: pre-wrap&quot;&gt;division of the task into subtasks&lt;/span&gt;" style="shape=mxgraph.infographic.ribbonSimple;notch1=0;notch2=10;notch=0;html=1;fillColor=#F08E81;strokeColor=none;shadow=0;fontSize=17;fontColor=#FFFFFF;align=left;spacingLeft=10;fontStyle=1;" vertex="1" parent="1">
          <mxGeometry x="525" y="280" width="265" height="40" as="geometry" />
        </mxCell>
        <mxCell id="dbmLQUkQ6qZhIsHGjJ-b-57" value="4" style="html=1;fillColor=#23445D;strokeColor=none;shadow=0;fontSize=17;fontColor=#FFFFFF;align=center;fontStyle=1;rounded=0;" vertex="1" parent="1">
          <mxGeometry x="480" y="325" width="40" height="40" as="geometry" />
        </mxCell>
        <mxCell id="dbmLQUkQ6qZhIsHGjJ-b-58" value="&lt;pre class=&quot;tw-data-text tw-text-large tw-ta&quot; id=&quot;tw-target-text&quot; dir=&quot;ltr&quot; style=&quot;font-size: 28px ; line-height: 36px ; border: none ; padding: 2px 0.14em 2px 0px ; position: relative ; margin-top: -2px ; margin-bottom: -2px ; resize: none ; font-family: inherit ; overflow: hidden ; width: 283px ; white-space: pre-wrap ; word-wrap: break-word ; color: rgb(34 , 34 , 34) ; font-weight: normal&quot;&gt;&lt;span lang=&quot;en&quot; style=&quot;font-size: 17px&quot;&gt;distribution of duties&lt;/span&gt;&lt;/pre&gt;" style="shape=mxgraph.infographic.ribbonSimple;notch1=0;notch2=10;notch=0;html=1;fillColor=#5D7F99;strokeColor=none;shadow=0;fontSize=17;fontColor=#FFFFFF;align=left;spacingLeft=10;fontStyle=1;" vertex="1" parent="1">
          <mxGeometry x="525" y="325" width="235" height="40" as="geometry" />
        </mxCell>
        <mxCell id="dbmLQUkQ6qZhIsHGjJ-b-59" value="5" style="html=1;fillColor=#12AAB5;strokeColor=none;shadow=0;fontSize=17;fontColor=#FFFFFF;align=center;fontStyle=1;rounded=0;" vertex="1" parent="1">
          <mxGeometry x="480" y="370" width="40" height="40" as="geometry" />
        </mxCell>
        <mxCell id="dbmLQUkQ6qZhIsHGjJ-b-60" value="&lt;pre class=&quot;tw-data-text tw-text-large tw-ta&quot; id=&quot;tw-target-text&quot; dir=&quot;ltr&quot; style=&quot;line-height: 36px ; border: none ; padding: 2px 0.14em 2px 0px ; position: relative ; margin-top: -2px ; margin-bottom: -2px ; resize: none ; font-family: inherit ; overflow: hidden ; width: 283px ; white-space: pre-wrap ; word-wrap: break-word ; color: rgb(34 , 34 , 34) ; font-weight: normal&quot;&gt;&lt;span lang=&quot;en&quot;&gt;&lt;font style=&quot;font-size: 17px&quot;&gt;definition of interim deadlines&lt;/font&gt;&lt;/span&gt;&lt;/pre&gt;&lt;pre class=&quot;tw-data-text tw-text-large tw-ta&quot; id=&quot;tw-target-text&quot; dir=&quot;ltr&quot; style=&quot;line-height: 36px ; border: none ; padding: 2px 0.14em 2px 0px ; position: relative ; margin-top: -2px ; margin-bottom: -2px ; resize: none ; font-family: inherit ; overflow: hidden ; width: 283px ; white-space: pre-wrap ; word-wrap: break-word ; color: rgb(34 , 34 , 34) ; font-weight: normal&quot;&gt;&lt;span lang=&quot;en&quot;&gt;&lt;br&gt;&lt;/span&gt;&lt;/pre&gt;" style="shape=mxgraph.infographic.ribbonSimple;notch1=0;notch2=10;notch=0;html=1;fillColor=#61C6CE;strokeColor=none;shadow=0;fontSize=17;fontColor=#FFFFFF;align=left;spacingLeft=10;fontStyle=1;" vertex="1" parent="1">
          <mxGeometry x="525" y="370" width="175" height="40" as="geometry" />
        </mxCell>
        <mxCell id="dbmLQUkQ6qZhIsHGjJ-b-61" value="6" style="html=1;fillColor=#12AAB5;strokeColor=none;shadow=0;fontSize=17;fontColor=#FFFFFF;align=center;fontStyle=1;rounded=0;" vertex="1" parent="1">
          <mxGeometry x="480" y="420" width="40" height="40" as="geometry" />
        </mxCell>
        <mxCell id="dbmLQUkQ6qZhIsHGjJ-b-62" value="&lt;pre class=&quot;tw-data-text tw-text-large tw-ta&quot; id=&quot;tw-target-text&quot; dir=&quot;ltr&quot; style=&quot;line-height: 36px ; border: none ; padding: 2px 0.14em 2px 0px ; position: relative ; margin-top: -2px ; margin-bottom: -2px ; resize: none ; font-family: inherit ; overflow: hidden ; width: 283px ; white-space: pre-wrap ; word-wrap: break-word ; color: rgb(34 , 34 , 34) ; font-weight: normal&quot;&gt;&lt;pre class=&quot;tw-data-text tw-text-large tw-ta&quot; id=&quot;tw-target-text&quot; dir=&quot;ltr&quot; style=&quot;font-size: 28px ; line-height: 36px ; border: none ; padding: 2px 0.14em 2px 0px ; position: relative ; margin-top: -2px ; margin-bottom: -2px ; resize: none ; font-family: inherit ; overflow: hidden ; width: 283px ; white-space: pre-wrap ; word-wrap: break-word&quot;&gt;&lt;span lang=&quot;en&quot; style=&quot;font-size: 17px&quot;&gt;selection of tools and environments&lt;/span&gt;&lt;/pre&gt;&lt;/pre&gt;" style="shape=mxgraph.infographic.ribbonSimple;notch1=0;notch2=10;notch=0;html=1;fillColor=#61C6CE;strokeColor=none;shadow=0;fontSize=17;fontColor=#FFFFFF;align=left;spacingLeft=10;fontStyle=1;" vertex="1" parent="1">
          <mxGeometry x="525" y="420" width="175" height="40" as="geometry" />
        </mxCell>
        <mxCell id="dbmLQUkQ6qZhIsHGjJ-b-63" value="" style="shape=step;perimeter=stepPerimeter;whiteSpace=wrap;html=1;fixedSize=1;size=10;direction=south;fillColor=#10739E;strokeColor=none;rounded=0;" vertex="1" parent="1">
          <mxGeometry x="20" y="130" width="70" height="80" as="geometry" />
        </mxCell>
        <mxCell id="dbmLQUkQ6qZhIsHGjJ-b-64" value="&lt;font style=&quot;font-size: 10px&quot;&gt;&lt;font style=&quot;font-size: 12px&quot; color=&quot;#10739E&quot;&gt;&lt;b&gt;Team-building&lt;/b&gt;&lt;/font&gt;&lt;/font&gt;" style="rounded=1;strokeColor=none;fillColor=#EEEEEE;align=center;arcSize=12;verticalAlign=middle;whiteSpace=wrap;html=1;fontSize=12;" vertex="1" parent="1">
          <mxGeometry x="120" y="130" width="200" height="70" as="geometry" />
        </mxCell>
        <mxCell id="dbmLQUkQ6qZhIsHGjJ-b-65" value="1" style="html=1;fillColor=#10739E;strokeColor=none;shadow=0;fontSize=17;fontColor=#FFFFFF;align=center;fontStyle=1;rounded=0;" vertex="1" parent="1">
          <mxGeometry x="480" y="90" width="40" height="40" as="geometry" />
        </mxCell>
        <mxCell id="dbmLQUkQ6qZhIsHGjJ-b-66" value="&lt;pre class=&quot;tw-data-text tw-text-large tw-ta&quot; id=&quot;tw-target-text&quot; dir=&quot;ltr&quot; style=&quot;line-height: 36px ; border: none ; padding: 2px 0.14em 2px 0px ; position: relative ; margin-top: -2px ; margin-bottom: -2px ; resize: none ; font-family: inherit ; overflow: hidden ; width: 283px ; white-space: pre-wrap ; word-wrap: break-word ; font-weight: normal&quot;&gt;hiring participants&lt;br&gt;&lt;/pre&gt;" style="shape=mxgraph.infographic.ribbonSimple;notch1=0;notch2=10;notch=0;html=1;fillColor=#64BBE2;strokeColor=none;shadow=0;fontSize=17;fontColor=#FFFFFF;align=left;spacingLeft=10;fontStyle=1;" vertex="1" parent="1">
          <mxGeometry x="525" y="90" width="155" height="40" as="geometry" />
        </mxCell>
        <mxCell id="dbmLQUkQ6qZhIsHGjJ-b-67" value="&lt;pre class=&quot;tw-data-text tw-text-large tw-ta&quot; id=&quot;tw-target-text&quot; dir=&quot;ltr&quot; style=&quot;line-height: 36px ; border: none ; padding: 2px 0.14em 2px 0px ; position: relative ; margin-top: -2px ; margin-bottom: -2px ; resize: none ; font-family: inherit ; overflow: hidden ; width: 283px ; white-space: pre-wrap ; word-wrap: break-word ; font-weight: normal&quot;&gt;&lt;pre class=&quot;tw-data-text tw-text-large tw-ta&quot; id=&quot;tw-target-text&quot; dir=&quot;ltr&quot; style=&quot;font-size: 28px ; line-height: 36px ; border: none ; padding: 2px 0.14em 2px 0px ; position: relative ; margin-top: -2px ; margin-bottom: -2px ; resize: none ; font-family: inherit ; overflow: hidden ; width: 283px ; white-space: pre-wrap ; word-wrap: break-word ; color: rgb(34 , 34 , 34)&quot;&gt;&lt;span lang=&quot;en&quot; style=&quot;font-size: 17px ; line-height: 100%&quot;&gt;creating Discord-chat for team communication&lt;/span&gt;&lt;/pre&gt;&lt;/pre&gt;" style="shape=mxgraph.infographic.ribbonSimple;notch1=0;notch2=10;notch=0;html=1;fillColor=#F8C382;strokeColor=none;shadow=0;fontSize=17;fontColor=#FFFFFF;align=left;spacingLeft=10;fontStyle=1;verticalAlign=middle;spacing=2;" vertex="1" parent="1">
          <mxGeometry x="525" y="135" width="265" height="40" as="geometry" />
        </mxCell>
        <mxCell id="dbmLQUkQ6qZhIsHGjJ-b-68" value="2" style="html=1;fillColor=#F2931E;strokeColor=none;shadow=0;fontSize=17;fontColor=#FFFFFF;align=center;fontStyle=1;rounded=0;" vertex="1" parent="1">
          <mxGeometry x="480" y="135" width="40" height="40" as="geometry" />
        </mxCell>
        <mxCell id="dbmLQUkQ6qZhIsHGjJ-b-69" value="" style="shape=image;imageAspect=0;aspect=fixed;verticalLabelPosition=bottom;verticalAlign=top;fontColor=#FFFFFF;align=left;image=data:image/png,iVBORw0KGgoAAAANSUhEUgAAANQAAADtCAMAAADwdatPAAABJlBMVEWovv////+Fne2pv//Z2+JbZ4c0Q2kuPWNxhsyKovaxyP+vxv+Npvp+luKiuPgpN1pCU3/P0ttWYoOIm9Xl5+w5SXF5gpx7kdurwPcjMFK1zP+50P++1f8xQGYwPmG4z//19vhOXowlNV7k5uzC2v8tPWeUrv+qsMAdK07GytUAHVAcL12epbezuMeCi6OwxvSRmKsPIkx0hrmMoNQXJ05sdpNIU3aAk8yUqembseWovuwmM1FWZ5ZsfrIlN2MXKVYAE0gAAEGasvpfcq5jdKcAACaes+BOX5JsfqtNXIOMpexme7sADCeSpuBfcKKVqtgYJkSEmMcGJVoQH0Rna4OAg5ZpboV0h7JXXno4SHaKlK4GDUAAADGInL2jud8AAEYAE1HL5P+VyT9xAAAU+UlEQVR4nO2de1/iutbHxUKirWMKEoa2tJRgpaXcoTggts7o8TIedXTvOTO69znPnPf/Jp4U8Ya0FCk6cPz9sT+MO7T5kmRl5bayFFlALb11Bmahd6h50f8UlJqMxn8zRfPqVFBqtHxjxRK/lWJWpRAPhjUKKl+uWYk2hr+VZAhwgnJFXwSVL1ltDQqCgN6aY0iIZknDsVp8Yii1FMOaIMi588b2xm+l7cZBDguChhO1/GRQUctF4hufqlJWZH8riVmpur6dE3QZx4xJoAwAoM5vVDMs81uKy2Q+HekIgJKvxXgCVbIBgo1shln6bcVImQ2sAy3lR/UYijIJfGeTe+uM+4vJVHuCbFs+VI+gygAIvXTmrTM9XtnqMZI1H6oHqHibMonSW+c4iERKBbRYciyUatG6V50Lpjsqy4vqHqqEoXY4B3XvVtnuCcJazMO9uIOKxmS9sfnWeQ2uzAWUMfCguoMqYeFE+s3t3mMx0rGAAYiN9JkGUFFLI805aVC3ynZk2aUa5VwMoMqYnFR/4z53hDLHOgaylhhBdQul1jTSkOYMqqkDjBXQLntARS2CO3PUolxxIkZ45WgH4GdUfSi1fCLkqnMGtbR5riu7n/gdoA1T9aGSNwAdz1mTovVvW1eOtr7SsjJLI6DyKQ1ti/MGJZ0h5WiZUiFg1tRnUNEYhBvsvEGJ6xDxH9a2limVfaOOgJI3uHmDYteBC7W8tXxOqR6X1QJALa+t7buD4cWCWl7b2t8BbWOxoCgVtYFWfrGglteWaU9836wWBGp5awXBRHzBoJZpBbwvqoWBWvuowLvR1cJA9YuqvGhQa6eKVkkuGNTqB4wGcxaLA7VMfcB2QV0wKNdZuq1/iwR1qsBbr2KBoFZXZHjbqBYKCrxD/ZZ6h5oXLSSUO/GCPy4YFMNe/zO3vLpYUEts+vTDA9OMoO63O4SQKpCy3COmGUAxHBUrVqvVbtV3rpdhaQoq0f3ClGDMl+XZQblE1erh2XbjoJfL5bZ91hoYqXmUy/XOd7c3Ot0qOx0YNzMohmW57uHGbo8HSGi16i1d/+FdVpkLTadpWjqSce5g+6LL0q+/kIkRv8ym+nEi271o9HhZaNUd09Zwu42hvi0OXvtI/T+IHQ3ZONEGmunU6zrEud3mIX3Gi97NNs9XZmAo2Cx32OhRCgqEE6la2TDi0RrQr8Ws6Mothr5Ytv9vSczpmmXEDaNcqlht26m3EMjtXqTFF6y5cGn8jV8Ou59iJe7igIekfmUnKuV4NOkOO/NGBSOwnu5cXFxeXjbuRD83LzpiB0Kt0B9yq2o+btRimlPXFdy7TGfFiV9/u+oRKhQncZc9oJCieVIzBnt2k+WbGAAY4PMez2MAZBlCqCj0PzL9M+Z7PQBAolK6m3WkYAXLLjoI8j/SmQmx2HUk4FChGEls9qBC9uyUkRzMIRqVBLQ1SHOPIXGcevGp6nWHuP9Ts0nbKtxtwVGT0Rou1umPTrEmMhkM29P3wzQUbKbjIv0yb+72VSdLMWJqtHCIQwGuTHASsyo3N6VCoVwolEo3lVTsBNtX9P+Zmuxype5XKVS1fLLnKIhvZifaysFVv4Zp0jPiroLg3tX9+l2+AuoEEGdv7+qaGoyCMXIPuZqMl2sWbxb3rojmOIlHC9DG9WeiCL3ORIXFLoVn0rnNs2sdOleVu4xHrasiMYtFLXZTHrdp12UzSha+Kjr1z9eFh78W7KImoIaUDczESOH1U2JmVxds5345KGr92nMcOXZjBN3h7ypeigFn77P2aDfsjW1C/egw6CYVRjwQ9kPqp8R07hux7/aZqPnUr8+0gRQClNCw8oVUu/4Zl++xojFiC1ozYJ/FLgnfQrJ+XJb/ppHUgCFfK/71MqJ7LuWvxH0RqyVsC6QTzLaHOPLNXP4BcWHQLRla/c/S+B39vorXfjrf758Rj2l6L9h26/CgWBajuw0mcYt8L3tuZA2ufOFfuHRX2EabCME26YUHlWnodrsPkixRT2J6or6SZcsaPEu9sfVcIFsRGhSbbitX/YLKl0phIfWxjMrAYMTbRG8G2cwbGlTmEhHsvlw1Ap5lCqy8MdgQWzGDtSp2XQ4Fik2fKHs3/VeHjOQ+8c6FBFDoBGhVHIO+hQElXSrEDB9nSJapHweof4zYuD6dvvPluJ6yl5o1U6RsynIniLckrYfgJkkXAF69uKMNroQp/AhiKsKYeGHYY6UYmz1TpLAn8+kAbkUYUOIhD6/CtONeUgFBlwGKKgQoRrxU6iczNxOubvZgjxs7smKy07cpttuDxZJ/bkJS9Irgi7GmIgzrJ17gFg5yzDYExeqKz4zo4EdmyNT9FMM2YN33KGCIKhfhSZodAxWCR8F2c8R8DTPhSsUOuBhj/0Lw/Rj2AtdPXqGTulWlCI/HmIowoKq7yKm9Uu2jDqBDTg79iyoEKK570tJeq/bR+ndSB5ezhmK4JnASr2T7XKgbWv/8F3lCgKruCubr1T46VjTJyX987d/0UFw195q1jw6Faf1rzhaK4c5kx+sE6kyk1hy061v/poeSGq9b+6j9s/Vc16+opoeq9lrPDpTNVvlEHV/MtKS4Dm4lppy1nFBqxYHbfovBU0NltwU7NX7eUk0mA1TRYKkiZVs/9zsoOTVU5rxljxt1qEa59j1VKZV97UmwVK7iuMV3ZwjFsHwLjzHoxndsm47jmHKs5O0iGpX2bSrtp0+qvvKWIzd9cjUtlHgGib9BT9aA2XKjr0ChRcyfHj+AWqKpWjSV3E/lb3nUmik0fAZV00K5M+gVv3aQT5lExwcbZ2dnjRwSTFQYlSr5naYCB9tuqh5NRUamuldZa/V8DupODTWmSfVze57OiBzHZqsb14LmjCgF9bsDH1Kd8YLW8qWKt30b1ZRQtEnpwK+ulCjT9qYbl8jduZNJ84INntfWkgn13U3xLhV9qKb4dRN5y5TPvLvfKaHEdUh++jQpAxC9sfnw/Qx7ja6sZ6nahDI9pJKka8F8luqR1Jot+IQpmBIqs63bPrPNasUUzh/ldunLZqclk6Gipe1e7z1OtZRJEzic6oloozr3Xv+YEmrzWLdr3u+mdR90nlaTzXPdrDxLpQ2t5v73uDWc6okM2lN5W4rpoBgpp/sZqrLdGu76pQ4hP5/2QyNsWbbjX62jCQLWPRvVdFAcgwnwbtF0kAAvh5w0RqSmxXiayiSN7FCq7EnLzwCpKRtteM5pTgeVPUMk4e34JVP15xE6aCegPSnc5HcHnA2/I3MwlGpINVtveM6pTweV2dD9rFTeqvOHz6B2h6GsUei0U/eDKriWYkZQDd28mRyKBIIifp06tRQ5T0dpKihGOhccn1ePzu6z6pcaVf2Gy3NI8TbBjJdPMRUUx+UQ8XHR6WhObg4bimcmgBoKeDn8q0u9luzXUSX/JPCT1+zfVFDsOkYjnJ4HFUxhOEKMmIak/fQ7dMx3PNSTsmlM2n6OEjV/woZXo5oKKnsGSNvPRTfAM8dz80dr2Aeh7QMPp2q0fIMP+pu/qaCkJjJ9V3qTFu2CngRny4oaHA6Rk0yZ+vGTVKykCcOphlSyWwezgdpGjv8+g7JNSOfRu7nNnm7/HC6CskZTPaLi/ntOU/lPfJShnpsN1A+h6GPRI/3hlKB1Bg2GYdytm+D5gIr6vYhS3R3HYTfdVP7DRFqzdd7Lpk8DxYjHaNxSb/ynLZCNzf5JG1ZKnwvy3ggHOPrTRmQj00/FSd0DQS76ubP9B1Ob7rVMNRUU20PFcfOYRtsWhJ570KbbadAh7ejcxn+a6FEqWBy7eyb/k0Avl3YaKI7rIWfs0kD8X3TwC/lcLocF3YQeA5V+KnSXivgMZwZKxgjy6qimgWKZE2SOXxrIl9qmWadyTNnyLNhk6edtqpapead6JIsIZx47yqaBEtd5YgdZ640Xvsfa7YRV892CGizVvVJE9+p9p4LqYHIdbL3DjYY/Pv58sFQDVYi+PQuoM2y2g+VgBroxPV2KaaCol+ScvBlUbUZQTQ+oeMibKvKjTGzJ1HdnACU1ZWek6xdPhLoKV8aj/PWZQcH6aH+2/Fd4G+XU2D9G9oUFoh/MwKR7Q0Xif/ztu2wQHOnm8z9Gj6tmBXUJi17TLlH498NZtxcT5Uva38RjrFiw9XOPmefpoBDxrGb5xN4vrTLNvns1eqP92vPcS1Ozv3nNJ03Z+cIrz6GHWtGKRdsqR1/EpUbLll0sap7LyQbWWrPofGlRCdD0NnQF6s05ZvvGmJRLzcdrbdNxzETB65vRhKnnsjMYTy1x2XPBBt5+erSGTUJMO1GbgEuNGiVLc+j3cMXTW05aJsJdr3nn6SYzxSov2D6zPqpRAQ7RiKklKoUgYHmjXIsBk37F0SreJxmTKRvBC89TH1Mu5Ujda0rlN/UXv8GOo2m2beNYpVQefSK2n9GoUahZbc12ia5wJe43R28TcjmzRbcl6dCl8nMg1GghZgOMSb1FbLkdS9VKhbIRpd54X8l8NG6UC7WKlcCabbYgxqYZK/iVap7WPXKZndma74BK9r3MhWY8ZgLeHdO2KBgtCkDHTYmYRfVnLNFuA1kj9Ldv6brMY00r5X33vRhtl0mc5Y4XJnvI68T0vHSir7hN0L831914GzIl03VdIA+i/6R/Qm5ojc5/Tsi4CT8yppxC2UOb7fZ06PjtJEteEdTjWC6bkbj1je3d8xyPAUR9QQgw3ztobH9aEjOSKF4SUvSZHUueFDVBa/qfdwvj+J4oNQRI/s97F/d1XcHdW1vFsFJmk2aeW1pf//Tp7NOn9XWGE6VMJiP2X8OJx4j88rSnN78coOe6Y87whXImkc00eSQXf1VGtwWrCODFk86fYe4ihrgxRJ48X6z2kHM18jlqQfsMEWyMveEmnIOWTCZ9LCtwz6yMsFo3V0C4DH7biXTYluv8s8dQ5xbvmQrKnWXGHIoI7/SoKHXOZTdYCLXGT8urTDT9eJK4C5kLIBefHh1R80YKFx0I+Us2wPHR0I7EMhJ7cY4VUr/CVsl4mBNyd7P0pLE/7uMnZS4RLN5NZ7rXMpYrbbPYgnIuYAiREM/OcxJ3scvLqFV3tLZVKxhGPB6Nx0yBr04Wo4WTjnVCCm6vTL2mVAKb9boA8XngGDahhsLjRO7w8oAHSHenYzXcTsTamoAPJ72VhpV6uoZpt+z6GPV6C8l8r3GRDhxEKeT4ftSopQ+bjR6PFdrJupPIuubteHqKOsq67n67JSDqiuxuH3Y5MXg2Qg9aSI01x1YPO7fRx3icCxoZ44loh455vh+Z7OywW+XYifIwi0iMTD9QXD9OXPew+7LAW1y12+l2q1WRfUEMuVmFl+zfXchNEdRu8OUXRftbyJiZ71DzoneoedE71LzoHWpe9A41L3qHmhe9Q82L3qHmRe9Q86L/USjwO0BNFjV9PkqK63QmCd0/F1DsGc83fRdEh9L7Q+Ut6B/64VUkNXQE/Jd5n2gMVLICUOPNr5Nmz6AM4aUUlGoMlFpqC703v/ib6fIIK6QRdOluDFQkHiO+8SxeRUzmQMBYbh2MXxntaxxUsqKhF61bhCmGbbqRKuQ/esGuWBgHFSkAweeU+iuJ62DEHwFFPwq0KDkWykgguTPJku0sxFV7Ol45VWSdrwYIWT0WSq0A3fOc3GuJERsI7W+dKorOd8ZTjYWKGCeQBAmoPEsx3AUW+K9bp0AR8MXYDms8lFqhz5toz8AMxHVzAv64trUCFITHOhfjoSLxhKzvTnYFSujiqsdIOV1d3fqIdxC+zPr/xgGgIgUs64E7vtmI4S5l4WjZvRua30HgR3WaUHh3tgKShjTx5UJhij3kBexePrf29WgHQX+qIFAR1dJkdDx289YsxXV7SFlx89mnQsd+HVYgqEjkRANCr7P5duaC4Rpw52hr+ZZKkalH6k0VECqSoFSgwW6+WR0UXaN+m8ctSgX0nCh98UgbFCqS0jDU8e66lMmyHOOj2+cOf5xa4n39c29SlgHWr7kXHjN/pAoAGOkw19hYT/tIdINULbFV9yO3xLi3H/olD6xq9Rju7G/dQn3ECsa6nX7ZWY9HUmsYYAwFOgjFvKfwbpplmOwZj3l87n4Um7xP8olESb72c7q2fESh8MOp/BdDuQNG9/4yrCDBW9+U5tKXL0zvn4KgC9vMly9fct98kk8ipAA0uKtodV+RLQsLsDlyNDwBVEQttDWAj/Z9f80j93bW1RVMS+rI7VdWT0MqJyqg7NxSrdFcVuKWhuDImYtJoPpUSu7D148+Gjzmg/uxH1x+1S/1RPqwQmtJ/57etQ+8gpNRl2pUNzwRVEQttzXEb3xZ89YgSv7Qx1C0tbaCkYKpCVyljcouR6IpG1KqZ93MZFDuPl+N/lhby2+jtY/glmrtVNFS7i14tgKfOxeTQlEqQB/7ZlQfwI5LRb112b1uKFmzITrvilNCRaL4banwjgLo62n9M/ommbqlvbQ0JVQkqQH3sas+r54pFb+jyKdfDhStcmu8MBD4p93wC6AiKtYU5fTNqL5SKvTxA5AHERbKlEp7HMznRVARNaEpaH/rjapgn0rZz4G7qCXlNhD0x1QvgqIDLCDvHH14o8KiYw+kKBhod6fHjARGf5w9RN18GZQ7GyPvKPvLW2s+L58pFfXTtfuD+/EY9bW372ccXghFrU4CwB28/3F5bfX1tfX1nEIBcH9mkDoXUPhxN+f1Uij666RoP7wD+P3TldAcocD6+vFIBuBRSL08pSLHA5fp5VDUZ6q0NYio84xfX9S7xRg8Chmlfu9TiVNCuVcYlvqnjdEbSHP1OHCEWqNU1LlgpoSiihrlUq2SeiM9Df1awtS56GSZqaHch6nJt1F+6GwxdS5kkutIYUD9Riq3ZYHvZBYLinbDGgLN//pfqjV3cqnQ2eZClZS7RqMhYZtfLKhIPgZkAYPFgnKXMwCQFwwqoqboMJb/sLVQUJFIBQP5aHltsaAirnNxdF8BFwQqUmjLKHc3lbcoUJHyCUT8gGphoCLlmIYGU3mLAxUxYpoC+pNeCwQViVuDqbxFgnJnLpSd/a3VhYKKJKlzQam2FgoqEnGpjrY+ygsF5a6/7xyt4MWCitxggDCWFwsqUmpT0w4WDCpSTmh44aDcblhbOKiIYSVK/fm0RYKKRAcBcRcK6k7vUPOid6h50f8D2YMEmyaxlE4AAAAASUVORK5CYII=;" vertex="1" parent="1">
          <mxGeometry x="410" y="123" width="59.93" height="67" as="geometry" />
        </mxCell>
        <mxCell id="dbmLQUkQ6qZhIsHGjJ-b-72" value="" style="shape=image;imageAspect=0;aspect=fixed;verticalLabelPosition=bottom;verticalAlign=top;fontColor=#FFFFFF;align=left;image=data:image/png,iVBORw0KGgoAAAANSUhEUgAAAZUAAAB8CAMAAACWud33AAAAclBMVEX///8Aeb8AdL0AbboAdr4AcbwAb7uPttoAc70Abrv1+Pu70edXlsvQ3+7Z5fGnxOHr8/kyicbJ3O2wzOXf6/V5q9Vcm85moNDy9/vC2OucwN+TutxDj8ns8/mEsdiryeQTfsFxptM4isZ+rtYVfsJMk8vjbV8yAAARuUlEQVR4nO1d6ZqyvBIUAgg67jqurzLb/d/iEVe6qhOQQXnON9TPMQMhnd47nU6nxYNYTdf92WE0mg1sI+br44jRaNSfv3JefxmrdxOGYZwhihY9ZcQ6NdkAP/ZDk85ePsG/iHkYeHfEAZNla/IjzEcDk/xrWMX5JT+SZY8jZkYM8EwrxZ6OH0mUI1lgwD8giucvGpnoX8Ia19wL13LEO5KN6Naibkx4zbtiwJzI5kWtCHsuBhGtuf8lRnwQ2bxo2NBs/wqWvObxVoxgsnlJyytPRS/hNY/6+RGzkEeETU33j0BbcyMclh0zU7Bsarp/BMqaS7t3zLreM9a4TIs6oNhXXiRYpeszq7w3Nd0/AnZFvOiQH7DStIoWKfvv4t98OF2v+/3B+EUvnDKrBDsxQjHRor8RnVwNZ9uPtzSOTBSFUXiE8RbTV7w5VXSG2BGDQrLVhvls260Fo19rveFs/xOYKIwD2JN+5G3q+FYnNiyeQumrsOMPZKttKp6JY78OnLIRFee4Gva3y9REsc/ffUEcP5kuK/YPg4kYcVDI9oxJTYPYtgqV4Jut/WXz5Xf6013fHeHev+F0ttm/T/wTfxQ9PEyfaoIu2byCGD0TBchWD0aKJfhLRFY7cZrlioI4TIzxvW8viIxJjmrD91FcWREYynXUhyGvBcQlF7yDn5FawfRNLYhtZOGt+DjCn/pX4QLWGUEqBijOTNjVn/UbaD5TDUhG6tuGSojpccRPMnk6M9YqRoaCKR2GZKsH/Jp6EKlulRZiqoCnqNcjlFixFJdr3lXPkF+KIK0Hvqrxt/XYFcFzahe6NDtkhG+aSvwE+dXZ1yHoVaRPfN1TloJz8SS/2Jl5ivzqpE8SYBbPalHP654ToOVICmQgeyx/zVMykEpSrSaEWnzkEaoEQeaSJibyvTT1kpx08T+fsRSKMP+G2ROnc0VSHejBTOIwImienc/j0AMM+8r7WHLrBDk+P5wsu4f1cHyxGubd4LomfrB6xlqwVQwsyebqc+QXUCXwt9MhYfaDhkecbgY0bHCYCAZXqaJE9hR8LzdTRf4tT4wdJJ9PIUqfxAbIL8VcfY78klSJ3yyj1nLCoY1tN3nyqVTpbEyxDIttuYquCaPkbW359ZdQJiIHcIj/OfJLUiWwS+t+frl9u1maT9LpVOkMUlMU7LLr8tV68Kzs0oZkK06DDKMnyS9JlcTBjnnmdaXd8sN0qhy1ancXmCQ5KvKjJveUuoQaPfdVf//jmSOOWmo7dUyc61piKFHlWPGT5BdIMMe4w30nOTPUX3dmsVLl9N7x/IjxSsuB1+csz3YmvGYFjhZdGO1GNsKweYXLweWUX+qTakCOKoFNq2QY3DeK7xKmo5JUueMTv9YhIB/DNgxJ5sSWgDNXrRgw7CkqEXyrTzpiNR7/Ts5WoYrLrx7d516OKmyU6QG0h9H3dSM8VJMhb1SDD3tjRRLOov3Wy6N4jhLv/VD9OxqnChWU1BR4XFpN8FjJAygGO4z4QAmHaueMmRddPsiPzUfVvHHTVFHyCA9+gYpV6vBWE54YiVGUX+XmOf4ULkRgKu6wpqlCte1ROW3kxj9nYpMN2j6KJx/LU0nCIdlOj4noa6rV7jVMlRVuwVpS4D3F3BYrikYeFRv5MIAknGaSbBWhqYnLEh/QLFUoLFZLMLgoDh4f5PgDxlqIYUnCBfzWvRroTaqU7zVMFVSh2hzm6/76IbWp1GtJoG1PS46zoAyk4W/b67nvSszfLFUoX0yyZbAMkyiMjNctHZF8KwxLw6EG8kQifBcyn+JIb2w2X5UAQLNUoa9FJbu8xTJjxXJS8cHpwghki9TllMoKsRCENk9CW6RvNcSrJLMbpcqABANIKrHCphS3bDmelU57kvpyofbAKixz8IlENmehULl5CzRKlXdQK7StxLeqkZ75dDrISz3esybz9qClQb7Qg8xAkqIjYBVFVbiMvgrM0iRVqHjB/IMRb4JsEU1qEWS9VhIz2V+8B07ymszemksGEmfnMSzJxEeThKOnb84akcdPUTRJFTSL2QcYC4UQyq/rT6LrYgR+5GVSZcXx5xMBoEwiL1M4LImTwMQLh4pHaBMD5ySL6Xw8H6xnh812f8R2VGBUNkkVcpd5qiJKJmyBfgoB4fB7wDbx2QMHDhISCIMLEWU6KVaMA1CpBME7qqowySzJMOuPdD63YLwvh23WIFXWKK4V+Stjl/fQ+XBCwY2jqUWnTC9hESCWn4tOIasE5Iuj3Uy2IEYSspTurrjszTc/KLDvj2yOKliboNWPyVJFc/3zh578txBlAwImr76wBIwmgXYzJ0qRQU9Nqwo9WS87JGVL7zVHFdqlSiAP0raXM+/9uFwBprkII1zX3ItQ+HBNJio/UvU/MJmz1zgrU2Fl9fubowpKBs0Hhn4qJ6r03kqW9ZsZTen891yoDVmFdAayCqn6LQy4nNYbkC+rAYOgt7c2RhWYoFpCsZH7MJNg6+LTYGdEG8uLcpU8yCqcRkBWwXZT+AT/8hnDMjWp1gMfjVFlCtNm26fDicpMo5T42tPbr5sa683ziZEl62lYHtjyEUSbSX/EF6O7BFXiyFoA0RhVUHaopQny04LPcVq2pN+/Kg/MjOSNLFRtLES38n2ULyND4vrNhVRx5imbokoPZh1rR8Pw0wI2h23ffNWjK0rg5LQ1+CpKfxxkFWBojE7cw55Th145+rzGc+b0m6IKhmHVNk7VjyCFV+8d01X50mFiFVoocOtJ92Gk5W4s9G1UCUIz6a4LApZNUQUcPr2VptJ7iHDcdyHHWa6644Pomns8RMCw1rtDbj1KOOxOae6sdMBo0smlD0266JcIITdEFdqmmj+lNU8DxOF+vpp2gXq3Q70UoMqvKwaLuQ4NgsUk4eDh+bQNVITGy8XXfjMrWyTdEFXA5NUri61S4PatUff0mRC7uSkVKqKP8hoW8irKOU74b5RwKGDzRwmk9Rg82FW3IapAEjJUY91Kx03xqWZ/WQb4Ibms3txdTwR8xJoNdB/G6bCaUgTsZdWMeuzNgWaogr6X3rLRSZTAvF+3LuzZa/HliookRIADNLnSHwa2DmZ/Fg5+hyN0iWPFNDRDFfCYdV3vbJiQ6+YC+uG29t8YTZG97lEX0fun8v04SadqlIbxw0c/KlDFKSS3pagCVXH6wRmHXRzk2/fAnr0qdM61CIsCulDErFUgpk01BS4rUip75eFuVKCKlzrG5YxZO1WQC/QH2oPh4SS3wLBnr6vzSXndtevpzCogZdEAQ1aRpwal8Hu4/3QVqjiYIF+1Yh/WLRTpHb0P6mV9hQiFPXs5iPZDPr0MHkB5jdJVAZ6LtjtwqCx7gbk/3Om4ClW82JatWYm5WKkCAkxvRIcB+Ns0fVH0ClrlIiyIKCG4iBD3NORIgL7G7A+eiJfZfjn3xzsdV6LK0e7XW+eIKLuVKigb9EOyFsc+3MlXQ0j4nLEgosSwMP90sZcDJhEGzp8hBSDFo273u1CNKkf/LZ0g0hAsVBtVQI2rgUku07qsDq4fzOskDHdIFB+z8SBDldCCfABlDWXq2t1D7PEyvYpUyYYjcICVKhO3H3CGnmI1mN8AOXdKSpGi50wsBIv5y7HDAHwLZIeAVb7EBCocia5OlULYqDIuJcDoGE8GQ6kxaexkWqVHtptyikh+TcSuN+fbBMAUgBcA/+r961xogCrgVPuqBUba9LR6ZGFCBibpdVbfxCnfpATBFeGMm25D3AGcJBUH8G+FrroNUGXn9s7OUK/SYLMfZMWyMydJGngk1oFbFcscVB9qBshpQQ0GvL9Cf6bXUwW5IFVHKQJM88UgFLXkvpEKUWjN2aCEZ2BR1N7lumPU4HEB1gBVgAv0qJoiwLSzeXjTE/dl1ohyKEwMozJHvSO1GXASzrtCg6bXUwXaOEfqQUgWYKzoOyX6JQbfLL4m8OyEZ7B06x2pdYCToN1LpRtAXk8VeJBeqEYCLFFtAuWiAbkkKecXsRhWaVwESVDSO1KtwJ2FsFHwRsNSeDlVQDjo0QgSYHpvF3uo7LKcXDH6ToonRBeIku6kd6QVKaNcWNanHDYuxsupAkInVqMRWItgKchdu4uuQvqgMZnN6uWbsjCGMxfCW5H76h+Ewx8O4p/wcqqUikxiDCzRTf6NU61ExF9TpZ5MOdcHQTIOx+zs4T70Pqvo+tdTBYVOqr0Mi99snQScyp7vtVBvaVC2BUR8OWAiH5Bfd6zfqNgN+9VUAdmk1GB1uDjONjFHG96A+xR8aUThU0TjL/gM2hJTMb00/xO2Bq/YgO7VVAEO16Uc5gltVVT2IpjA4xOl6hfQmu8NMCCekR1/CtUhuIFUfcWL8V5NFXiMKnbhGCOfbr/iyybB+CqQ1UQfa+SwMXWwQhk0A8s6H8ajU/dVG1O+mCrojKfau6DCzd4IxVZvwSqFw2OXh8vNPGBzAPyNPS58/iupqLnqHZIvpgqwuFouAxpTa8R1gZ6D8T1y1qn/1xWy+5FyJ2EWhs7hg92d+8voaoPKbU3z/lrqGFdYXcrQqIIaQxNykOZz5IyUC8+PS8F+adfqbYp7tjWiSE7lHjG5mCk1ddDL3MpA9DN2JAKUiyuLoCw5+uzaIVpLeVfR5K8rEXOE48e+o/IupNosXqzsQksv3HiFCg2qtzUVvb/ttRhVrplSqEJH7PlNsGHd6VU6VG2WtBIDR7fDfO5Dvx4oL+LUtmw3Iw67vfBpvfIQ2y2y1aqOrd/lgEIVMJo0w7GwVUQeGL5RLi0k9SwmcDew5nr0Jle3zd2UMlxjA2P8tUq26wopBMLdWuG6+Za6NZeBQhUItyhJQLyuMXXOHsp52ZEeunq15pM7Y8u4u4y1tGW7Kh7u8vqL61axGC1K6F6VJKp2EI6pguEWPkCACrfoJlUZvEUV1LP0sLjh5myMbbe5Rte1tV6qeVb3ZH9FFVKQ94lXUBglwVRBQ459SGyuVxTcE949xmdnSg8LaBR2Ef1jq+65RvHtN52eJBWZb043oxAvpQpFSHAAkq3w26RtLDJow4miKSLpoV7yCHN7Z4WL7681xb095Kt3oJ+DX7WVfylVcOZk86FxWVwLKqywnBk7fNeElxnJ9nxnqmBDBvEfp6ctnCc0fRbxv7wD5JVUocMFGBihySjVJwB57VP4dfqH3myn0SQIBtA08TQDa3fVDJkP19uRn1JQL2CqNDFuiCrYGYA4AcM6ZWpBpcviJz+L5SRRbcZz3bgYH6SdlcPH9E50W5MlEKTUl1rA6mGUxgtvJsSwFQ1AJ7NMehWdP63i+fT3S8hSRuICpd0FGAQBUy0eOztNhg+fjCC88BZPDPFSvAXPgOlVSYB9qQhdnF5eVlSB4cWFDddOwTP7ulWOFOc/6nU33lKvQPKz0C4u9QUlugkGuRuKsH0xIPrSLsMTszrtlZ6t0U+1+woAL7wdmniloG8KZ291TIq83DDNm0ROXogWRUtyq+HUk5t0VKYaXneTerETKbepUqml4925jAEkwVaOltBnnrK3V/eCnFTdKoZeWIP4ylAlHFwCCUcc0N5T7F6xTcsXuPU9u3JJfpAl7WS59uya2dYk8PO6cI7FsZ6p7Vo86xR+g1jbM11o7umejHKbhh0HTzcmY097CjsgGYLkFqAe6PHYeALsfRBXuvm1XLR0gT3GUxmWm5MWgufVEuNb8CJ6cNvNUsXINRbPYYuVLF5mpuWYakV3L3vKoczsSbfLs33zUeu9r1M+YfAr+FzOcMHwM7ktnSXJ1j9TTluBAqx/jLQWzLu1j/MYIzJEQGouHnt6BcFmYrIbYtLuL0L3OjaeiU/Nwn+N7Er6hWN+691lmwa2WoPxMjHGqxSzGHe/TXz2IgPfTJzuzvzD3Jfdv/fquaP/eb8xOQhDu0u7Gk6HT7lGvDOfbbt1YDsqcv3m+9SEofl2jBtb93jxd4yWk9gY/3NfGCDszd7DJMw63Hl7fYfMt59HPshGfFZP9/7fYDWY1nbX8O8w748Oa9dceoPZ6OC6VrpFixYtWrRo0aJFixYtWrRo0aJFixYtWrRo8Z/F/wCQ4fFneYrVCAAAAABJRU5ErkJggg==;" vertex="1" parent="1">
          <mxGeometry x="360" y="425" width="97.98" height="30" as="geometry" />
        </mxCell>
        <mxCell id="dbmLQUkQ6qZhIsHGjJ-b-73" value="" style="shape=image;imageAspect=0;aspect=fixed;verticalLabelPosition=bottom;verticalAlign=top;fontColor=#FFFFFF;align=left;image=data:image/jpeg,/9j/4AAQSkZJRgABAQAAAQABAAD/2wCEAAkGBxIQEhUQEBIVFRUXFRcVFhYVGBcVGBcXFxUXFhUXFxUYHiggGBolGxgVITEhJSkrLi4uFx8zODMsNygtLisBCgoKDg0OGxAQGi0fHx0tLS0tLSstKy0rLS0tLS0tLS0tLS0tLSsrLS0tLS0tLS0tLS0tLSstLS0tLS0tLSstN//AABEIAOEA4QMBIgACEQEDEQH/xAAcAAABBAMBAAAAAAAAAAAAAAAABAUGBwECAwj/xABKEAABAgMDCAcFBQYEBQUBAAABAAIDBBEFITEGEjJBUWFxgQcTFCKRobEVQlJywSNistHhJDOCkqLwc7PC8UNTVKPSJURjg5MW/8QAGAEBAQEBAQAAAAAAAAAAAAAAAAMCAQT/xAAeEQEBAQEAAgMBAQAAAAAAAAAAAQIRMUEDIVESE//aAAwDAQACEQMRAD8AvFNtp6Q4fVHtF2wea3hs67vOupdd460CWU028U8pE6VEMZ4JJF99Fy9ou2DzQcZ3Td/eoLrZmmfl+oXVksIgzySCdlOCxEhiD3m3k3X+OrggXpiclftF2wea6+z2m+p8vyQYsvA8UpmtB3ApJEd1Nzb633/osCcL+6QADcTsH0QIk7SH7sc/UqL2tlTZssS1801zhiyFSK4HeGA0PFRub6XoUMZktKviAYOivEIeDQ4+i7M2s3UiybS0OYTYVV870szcQUbAgM/nf51Homx3SNPn3oI4Qv1Wv4rn+kX/AA8BwCQ2pi3n9FSrOlG0h78E8YX5OXcdKc6adZDgPp91zPMOKfxT/SLYl9JvzD1T2qfs/pWZUGPJubQg1hRWv/pe1tNWtSuz+kmSjUHXNhnZGBh/1Hu+azc2OzUP8/pnl6LNnafIrrChNjARM7H4SCLthvWz4IhDPbUnC/fwXGi5McbSPE+qVe0XbB5rqJFru9U336td6DWyve5fVLI2ieB9EiifYaN+djXdw4rUTxd3SBfd43IEadLO0OZWvs5u0+X5Lm+MYRzG3jG/fwQd7Q0Dy9U1JayOYpzCAAdm6/Wuvs5u0+X5IG1CcvZzdp8vyWECPsz/AISlkm4QwQ+41rfwCWpttPSHD6oFMeM1zS1pBJFwTf2V/wAJRKabeKeUCWXitY0NcQCMQtJxwiABhqa1oNlCkk7pu/vUF1szTPyn1CDj2V/wlOEaehQ2l74jWtaKuc40A4kqPZY5cS9nDMP2kcirYTcafE92DG8bzqCo/KDKCYnn50w+4ElsNt0NldjdZ+8b+C1nPWNbkWRlX0oQQ7Mkmdc4XdY+rYX8I0n+Q3quLXyim5uvXx3Ob8De4wDZmNoDzqmtCrMyJXVrAFMFlCzCYXnNYC53wtBcfAXrrLCE8wMkrQiCrJOMQdbgIY8YhalkPIG0jjLhvzRoP0eVzsd5UaQpZE6NrUF4lmu+WLC/1OCQTWRdowv3knFHymHE/wAtzk7DlMSFvMQXwzSIxzDse0t/EFouuF1k2zMyhrLR3wtzTVvNjqtPMKwLG6Vy5ohz8KuH2sEeb4ZP4SeCrFC5ZK1NWPRVmzDJmGIsu4RGHBzSDyI1HcU9w5hoABcKgUK8zWRasaUiddLRDDfgSMHDY9uDhxVqZK5eQpwiFMZsKOcMeriHHuk6J+6Twqp6zxXO5U9nftKZnepWtNVaU9CuEOXcCCWmgIPmlFl+9y+qWRtE8D6LDbTtTPiCRTbC92c0VFMQkidLO0OZQJZWGWODnCg2ngl3amfEFpaGgeXqmpA8dqZ8QWUzIQdu1v8Ai9EqlGiICX3kGnluXL2e/a3xP5LpCf1IzXXk33eGuiDrGgNa0uaKEC47Eh7W/wCL0St80IgzACCbhWlPVcfZ79rfE/kgUQILXtDnCpOJVfZf5eslC6Wkc0x8IkQd4Qrq5oxDn4XYDXsR0jZbGUZ2CWd9uRSJEFPsmnU2vvkHkL9ip7+9vGp1rec+6nvfqNokRznFz3FznGrnOJc4k6yTeStUJTZ0hFmYggwGF73YAahrLjqaNZVUiUlSLJ3IybniCxnVwyadZFBaD8rcX8rt6sTJHo4gwQIsctjRh8VerYfuN94/edyAU2bKOYQ8kUbfdXAbLlO7/FJ8f6iVh9FEnBAMyXTL9ed3Idd0Npw+YlSOHLQ5Y9XLw2QmClGsY1owrqG9OHtBux3l+a4vlzFOe2lDtxuu1cFi21SSQSrzEdmvNRStPDYlfZGfD6pLChGCc91CMLsb+PBdfaDdjvL81x0kdNPBIDte5KJMdZXPvph/YXMyLjeC2+/X+S6Qj1OnfXDN3caIN5yRhOY4PhteKG54DxhrDqhQS1cgJGPeyGYDtsCjW84ej5BTp041wzQDV1wrTXdtXH2e/a3xP5LsvHLJVJ270dTks0xYYExDGLoQIeBXXCvPgSoj/sdx2HevT8OOIQzHVJGzC+/WoxlTkbKWlVzW9VMUNIrRSu6I0GjxxvF9Detzf6nfj/FDrBCdco8n5iz4nVTLaVrmPbeyIMe6dtMQbwmtUTWJkJ0guhZstOP7po1kdxqW6g2KTi372rXXEWnDmXkgF1QSNlCD+i8zqwujfLHqnMk5p/2dR1URx0DW6G4/Cb6HUaDCinrPuKY36q5eyM+H1SSZiGG7NYaCmC7m0G7HeA/NcYkExTntoBhfjdwU1WstFc92a41Brd/slnZGfCPNJYcAwjnupQbMb7ta6+0G7HeX5oOvZGfD6oXL2g3Y7y/NCBYm209IcPqkdTtTjZuieP0CBHKabeKbukLKoWdL1ZQx4ndhNOFfee7c0X7zQKQWjFbDhPe9wa1rS5zjqAvJXnDKW23z0w6YdUDRhtJrmQxojjrO87lrOesb1yGyJEc5znvJc5zi5zjeXOcauJ3klarKU2bIRJmKyBBbnPeaAahtc46mgXkqyJXk5YMafjCBAbve86MNvxO+gxPiRdGT1gwZGH1UEVJpnvNM+I4a3U1bALgsZOWHDkYIgwrzpPfg6I+lC47tQGoBPOV1omVkZiYbTOZBcWfORRn9RCldd+ls55OtbKtiWq5gmIJcDe3rGVFNoqnWYNWOIvuK8rZg138de08U6WRlBNSjg6XjvbT3CS6GdxhuupwXf82f9F+p2kP3Y5+pVc5L9K8KJSHPsEF1w65t8M7S8G+HxvG8KazEUPOexwc0gEOaatIoLwRdRYssUllLrS0OYTWkoymkoD6RpyA000TFYTq90ElYf0h2WP8A3TT8rXnzDU5TsSiHgOASG1MW8/ooecvbPJP7Tr1sif8AinKy8t7NvDp2C28U6x2Zq+/ROU7DnL6TfmHqntIoU/BjMLoMWHEGaaGG5r9V17SotlBlRLSI+2eTEpUQmd6Id5HujeaLnDqQT+meA9FxhzkOC7OjRGQxQ3vcG+qp62+kidjjMgnszNkM50TbfFIB/lAUQiuLznPJc7W55L3Hi51SVuY/WL8n49LzMKUtKA6GTDjwiaHNcHAOGsObg4bVQ+WOSkSzolKl8FxIhxbv5X0wf5HUpj0PxPsJho1RWmnGHT6KzbQsyFNQDAjsD2PaAQfEEHUQaEHaE7/Nds/qdeYVgitxT1lbk7Es6YMCJe01dCiUoHsr+IXAj80yqqNW10b5TmZZ2WO6saGO4TjEhimO17de0UOpWVZ2hzK8x2fOvl4rI8I0fDcHNO8XEHcRUHcSr/su2WTsGHMw7g9gq2ug8XPYd4N3gpbnFsa79H60NA8vVNSUyB745+idKLDZiQn2iECP2cPiK0c/qe6L633+H0SvtDPiHikc8M8gtvAF5F4CCvul7KVwgskmXOi9+JT/AJTTQN/idTk0qpE6ZUWn2ubjR61aXZrN0NgzWU5Cv8RTWr5nI8+r2sEq5uivJcQYPXRW0jRm529kKvdZuLrnHkNSrvIOwjOzbGEEw4dIsSmsNPdb/E6g4Aq+pMFjiXjNFKX3ax+Sxu+m/jnt09nD4iof0pzzjZ0RoFKvhA8OsH6Kc9oZ8Q8VDcvbOfFkJkBhJazrBdX924Pu5ArE8qa8KIWVgLKu8wXTtD8zqs9+YCSGZzs2pxObWi5oQYaAMLuCyhCAQhCDMF5Yc5hLXbWktPiFmJELnFziXOJqXOJJJ3k4rVCAQhCCzuhKFnmbaSRTqT/mBWcZ4t7tBdd4XKs+g14D5sk0ug48YqsWJAcSSGmhJ9VHflfHg1ZYWCLUlnw6ARYYLoLtjyDcT8JpQ/oFQERhaS1wIc0lrgcQQaEHnVenJHuZ2f3a0pW6tK1VQdMFiNgzInIWhHufSlBFa3yzmivFp2ruL6c+TPtAVPuiG1g2YdJRHHMjDOh4UERoNf5m/g41gK6S0w6E9kVlz4b2xG/MxwcPMKlnYlLyvTToAhd8GtNXG5a+0T8IXOVtFk1LQ40M16xjHgDG+hwxuv8ABcuzv+E+Cg9JT7RPwhCTdnf8J8EIOabcsLTMtZszEaaOc3qmHWHRAGA8RWvJSjsUP4fM/mqz6bpoQ4UtLMuD3viuG6GA0Xne8eC7mdrOryKlApcFlYWzIZeQxuk4hreLjQeZCugu3oascQZMzJHfmHZ1f/jZVsMV2aTv4ypnaeiPm+hTfKQzLQ2S8M0ZDYxjRQYNaBrSqWeYpzXmopXZfhq4qFva9EnIRqA9JHSFXOkpJ1wqyNGadeDocM+ILuQ2p26V7eEnBEtAJbGjA1cCashA0cRU4u0RxJ1KlwFvGfbG9eoAsoQqIhCEIBCEIBCEIBCEIBCEIHfJjKGJIRutZVzDdEh1oHtrq2OGor0XZU7DjwYcaC4OY5oLSNlPI7l5dVi9EeUb4b3SJd3X50SFWlzwKxGiu1ozuLXLG57Uxrn0ti1fd5/RRnK6yu1ykWCBV1M+H/iMvbTjeP4lJpX7WvWX0pTVjWuHALu6VY0FwF4vF5xF4Uotft5ZY4EAjAioWycsppAS83HggUDYrs0bGu77QOAcByTavQ8y4+hmez5cwSb4MR4F/uxKxByzi9WUqL6H54w5yLCBp1kuXD5ob2avle/wVu9sifF5D8lHXlfF+juhNHbInxeQ/JCy0WdvZv8ABU500TYiTcFo9yB+N5/8QrPVO9KTqz53QYQ8nFbx5Y+Twiaeci4IiWhKsIqDGDjwYHRD+BMykvRtDraUA/CIzv8AsRB/qVL4Rnle0SWdEJe2lDhXwW0GGYJzn4EUuvvx+iUyWg3+9a5Wnoj5voVB6VAdIk/2i0Zh+prhCb8sMU/EXqOpzyobScmQf+fE83kjyITYrzw818hCELrgQhCAQhCAQhCAQhCAQhCASmy50wI8KOP+HEa/kD3vKqTLSKO6eB9Eden5dwhXuwcARTYP9wupnGu7orU3Ybbk2yry6WlXHEwWE82MW0HSHEeoXnelUHS3KGFaF/vy8J/MOiQz5MHioarK6c2UmJV22FFB/hewj8RVaq2fDz68pF0eRC20ZcD3nOZ/NDd+ivf2e/d4/oqDyDP/AKjKf4w/C5ekFjflT4/Br9nv3eP6ITohYUa5g2DwVD9L7aWk7fBhH8Q+iur2j93z/RU50wtrOsiUpnwB/S9wPqFvHlj5PCCqWdFUSlqQAfebGb/2nO/0qJp9yDmOqtKUibIpb/8ApDfC/wBapfCWfK+ZxxDyATq9F0s41cQb+7rv1hdOy9Z360rq8kGF1PeHer3aYb/ooPQpDpXkeptKIaXRWMjDnVjvNnmogrf6XZDtEs2Za3vS5qaf8p9A/wACGngCqgVs3sQ3OUIQhaYCEIQCEIQCEIQCEIQCEIQC1eKggYm4c1snvImyzNT0vBANM/rHkamQxnkniQ1vFwR2L+sOFmsEM35jIbL76Zrc0+icIrRmm4YH0SRx6j72dypT/dY7dnd3Nxux23bF53pVF0xvrFlQTWkOKfF7PyVfqbdMD/29sMGoZLQxzdEiuPkW+KhKtnw8+vJ5yLP7fK/4w9Cr3zztPiqP6PpYxLRlmjU8uPBrHFX97NHxeSxvyp8fghzztPihLvZo+LyWVhQi6l3wu8Cq66ZJE5krHIIzXRYRqPjax7Tw+zf4q4FCulWS66Si0F8NojD/AOs5zv6c5dzeVnU7FDreBHMN7YjcWOa8cWkOHouayroPUNnzTHQmPDhRzQ9t4wcM4HwIWJ5wc0BveNa0F+o7FBejW0uvkWMJ70D7E/K0fZ/0UHJTSzNM/KfUKFnHol7CZ8sXAtcwkEEEEGhBFCDyVG5a5NOs6YLB3oLyXQX4jNroE/E2oG8UK9HKK2zZcKbhOgR25zXbLnNdqc06nBdzeOaz158Qn7KnJSPIEueM+BWjYzcL8BEHuO1bDqN9EwqyFnAhCEcCEIQCEIQCEIQCELBNLygCVc3RDk8JaC6cjUbEjABgNxbCxFa3guN/DNTD0e9Hjo5bNTzM2EO8yC6odEINQ541M+7idd2NlRtI8T6qe9elcZ9lk/383M71K1zb6YbEnhQXZw7pxGo7Uosv3uX1XHKu1hJykaYOLWHN3vd3WD+YhTVUJlxaHaJ+Zig1HWFjTj3YYDLt1Q7xTGtWNoAK137d62XoeZOOhyWzrQMQ6MKA8knUXuaxviM/wV49ez4m+IVY9EFnZsnHmSP3sUMafuwzT8Rf4KaKOr9rYnIeuvZ8TfEITKhZbKO2v2+QXaFCEZp6wVuLdlxF/qVy7C/d4rvAeIQzX4m+6/cg83W7ZplJmNLH/hPLR8tzmHmwtKQKz+maymudDn4YN9IMW7DEw3k+LeYVYq+b2PPqcqW9GFstlp0Q4ppDmM2E7YH1PVHxJb/GrymGCEM5lxJptux+gXl/y3jEbCNhV85C5R+0pRrXEdohUbFFcQKhsQbnCh3GoWNz238d9Idl1HtaWjPmGTMYy5Oc1zC3Nhfceyl1PiNQa4rbI/pH74g2kAWkgCO0FpBJp9q1txFad4AU17VZzrPcQQQ0gihBvBGwjWFSHSFk22RmKwQeoi5zoYpcwjTh8BUEbjuScv1XdSz7i8pqjRmtALXC8HvAg8biFAbZ6NpaYdnSzjLvPugZ0In5De3keSRdGeVQe1lnzD6PbUQHvdpNJr1VT7w93aBTUrLhyrmEONKC88ln7zWpzUUda3R5aMuT9h1zfjguDrvkNHjwPFRmZguhGkVjmHY9pYf6l6g7czf4KE9JeUvY4berax8SMSGB4DgxrRRzyw430AG9am6xcSKRBWVvGjOe4veauJqTQN8mgAeC0VEghCEGrnAYmnFd5WViRboUN8SuGY1zvQJXYVsPk4ojMa14wcx4DmvbrF+B2EYK/LFiiagQ5iAQYb21bQ0pqc0gawQQd4KzrXG856qKxeja0JkguhtgM+KKRXlDYSfGisWwuj6VkAIprHjAgh8QCjT9yGLhxNTvUsgxhDGY7EbL8b0RooijMbjjfdgp3VqsxITdtftHgEsbKMcA4i83m860k7C/d4pW2ca0AGtRdhsuWWnKZ+ypmXVrXXhhjxKqjpfygMR0ORDq5hEWLT4iD1bTyJdzCsPKy3IctLumXX5gOa03F73aDBxI8F56nJp8aI+NENXvcXOO0n6YDgAt4ntPevTkhrSSA0VJIAG0k0A5khCmXRZYJmpvrSKsl6PNcDENerGw0oXcm7VS3iUnatjJeQEvLwZP3WMAOqrtJ7q73Fx5p77EzZ5lJYMEwznuwHPFKO3M3+Cg9LbsTNnmULXtzN/ghAqTbaekOH1SbrXfEfEpdZ4zmnOvv136htQNMzIQ5ljpeKKsiNLXcxcRvBoQdyoC2LLiSkZ8tG04ZoSMHD3XjcRf/svTUywBpIABpiLlXXSNk2ZyF2iEKx4TcNcSHWpbxF7hzGtbxeMbz37U+nPJq3YshMNmYV9O69mAiMOLT4Ag6iE1grKqi9QWNakKbgsmIDs5jxUbQdbXDU4G4hRPLWxu2SsSE0ViN+0hf4ja0H8Qq3mqqyPypi2dEJbV0F5+1hg0rdQPbseLuIFN6v6yJ+BNwmx4Ba9jhUGl9dYcDe1w1gqNn81aX+o8xEbbiDhrBB8iCpTZfSFaMu3M64RWUoBGbnkDc8FrjzJVg5eZAQZqJ18BwgxnCrrqsiG4VcBeHXYhVtN5D2jDNOzF41OhOZEB4CucOYCpLKnc2Fc10jT7xRroULeyGCfGIXU8FG56fix3Z8eK+I7CrzWnAYDknNuR9om4SUf+Wnm4gJDa9kR5R4hTMPq3lofmlzHHNJIBJYSBgda7OenL32RIQhdZCEIQCuHoPni6XjwCbocQOaNgiCp/qDjzVPKxOhuKQ+aaCQcyCbtzog+qzvw3jytOf0zy9FmztPkUrkmhzAXAE33m/WsTzQ1tWihqMLvRRXK0xTURrS9ziGtbnFzjcABUkncFiJM5oLnPzWgVc4uoABrJJuCqTpAy37f+zy90sKEmhDozga1dW8MBAIGJIqdi7J1nWuG3LbKYz8bu1ECGSITT72oxHDaRhsHEqOoQrycQt62hMLiGtBLiQ1oGJJNABzXonIKwxIybIN2ee9FI1xDpX6wMBwUG6IckakWjMNuFRLtOuooYtOZA5nWFY884tdRpoKC4XKW76Vxn2V2hoHl6pqSmScS8AkkX3G8Yb05dU34R4BYUMiE99U34R4BCBF7N+/5fqjP6ju6Vb9m7elvWt+IeISG0BnEFt92q/XuQZ7X1nczaVurWtOVFkWd9/wAv1SeWYQ4EggV1gp061vxDxCCmuk3I3qnPnJZtW3ujsaNEm8xWgYNvOcNWOs0rlemJthLyQCQd1QbvAhVTlzkC6FnTUmw9XeYkIA1ZtdDB0m493EarsKZ16qW8e4r5PGTGUsxZ0TrIDu6aZ8JxOY8DaNTvvC/imYGt4WVROL+ycyslrUADHiFFAvguILt5bhnDeOdE/wDY8zv51c2+lKVpzXmNjiCHNJBF4IJBB2gi8KeZP9KM1Bb1U2O0swzu62KBTbc1/Oh3lTuPxWfJ+rg9o/d8/wBFTPTC/OnmOwrLs/zIo+intj5Vyc3QQowDz/w4n2b67ADceRKr/pcBE8wG79mh/wCbGXMT7d3fpC0IQqoBCEIBT/oYbnTUdlaVlwf5Yrf/ACUAUr6MrahSM46NMPzIZlojCaE1d1kJzQABUnuuXNeGs+V5do6ruUrTXWmN+Ca8osp5eWh50y8Mre1oOc95GpjMTxwVd5S9KL4pcJGGYYN3WxQC/i2He0cSTwVfzUy+K8xIr3PecXONSfy4BTmP1S/J+HzKzK6NPnNvhwAathA46g6IRpHdgPNR5CFXnErehS7IDIx1oP66KCJVhOccOtcMYbTs2nltoZCZEvtBwixqw5UG91c0xdrYZ2bXb7tovOXgQoUIQYIa1jW5rWtoABS4ALGtc+o3jHfuuMOeDQGthgACgANAAMABS5bdR13frm6qY4b0k6p3wnwKcJFwa2jjQ1ON3qpLOXZ+q79a01Upjdij2l9zz/Rdp1wcwgGpuuF+tN3VO+E+BQK/aX3PP9FlI+qd8J8CsINU5WXonj9Atuws3+K4x3mEc1mBvvv3IFU3oO4JnSuHMueQx1KG4pT2Fm/xQbyWg3+9a52ke6PmHoVwizDoZLG0oMPVZgRDFOa/Clbrr8PqgrzK7IFkyTHlaQ4xvLMIcQ7fuP34HWFVs/IxZd5hR4bobxi1woeIpcRvFQvTnYWb/FMVu2dBnWdXMwmPArmmlHs3seL2nDDYt53xjWO+HnhZU+tnovmG50SSf1zK/u3UZEApgDov/pUFmZd8J2ZFY+G74YjXMd4OF6pLKjZZ5cXNBFCARsK2LiaAkmgoKkmg2CuAxQhdcCEIQCEIQCEIQCENaSQ0AknAAEk8ALypjk50cTc0QYv7Mw31eKxCN0Kopdrd4Fct47Jb4Q+GwuIa0FzjcA0EknYAMVaORPRcTmzFoigxbLgg12daR+EcycFOcnsi5ORH2MOr6UdFdfEO7O1DcKBLnTj2kgUoLhdsU7v8Vzj9bWgwNDGtAAAIAFwAFAAAksHSHEeqWS/21c/VSlLscfQLq6Ta0EitRfjsvWFCtNVo6fII7c/d4JRBgiKM92OF12CBNIaY5+idkijQRDGe3Ebb8bkn7c/d4IHVCau3P3eCECztrNvkVwmGmKQ5l4F2z1SFOVl6J4/QIE8KXcwhzhQC8pZ21m3yK2m9B3BM6BXGgOeS5t4OHotpdhhHOfcKU2346uBSqS0G/wB61ytPRHzD0KDftrNvkUjMk/YPFJk+tQIZd3VAh91cNfouNpy0tNMMONDZFrcA9tb9WOF66Wpi3gk0tpt4hBD7R6J5eJUwTEgnYHdY3weSQN1VFbR6LZyGaQo0CJucXwnfhc0+IV6Jonv3juXoFqarNxFFxMhrRBoJVzvkcx3+pcv/AOMtH/oo3g381flm6fI/ROi7/dZ/zjzWckp//o43gPzSiUyHtGIaNlHje4saOdXK74mJ4n1S+y/e5J/dP84piU6KrQdfEMCE3Ekvc8j+FraHxUjszotk20MzMRYp1hg6pp8Ku81Z0xoO+U+iZVy7rsxHKzcnZeXH7HAZDbtA7xpd3nu7x5lOMCEYZz33DxxSmz9Ac/VYtHQ5hZbZ7azb5FI3yjySQLiai8a70mT3B0RwHogRS32Vc+6tKa8K1w4hdnTbHAtBvNwuOtcbV93n9Ejg6Q4j1QduxP2eYSmXiiGM15ocduPBLU1Wjp8ggUx4zYgLWmp8ML9aS9ifs8wiQ0xz9E7IGnsT9nmEJ2QgYU5WXonj9AsIQd5vQdwTOhCB3ktBv961ytPRHzD0KEIG1PrUIQN9qYt4JNLabeIQhA9Jonv3juXoEIQb2bp8j9E6IQgYomJ4lL7L97khCBVMaDvlPomVCEDrZ+gOfqsWjocwhCBrT3B0RwHohCBFavu8/okcHSHEeqEIHxNVo6fIIQgxIaY5+idkIQCEIQf/2Q==;" vertex="1" parent="1">
          <mxGeometry x="280" y="408.75" width="62.5" height="62.5" as="geometry" />
        </mxCell>
      </root>
    </mxGraphModel>
  </diagram>
</mxfile>
